<svg xmlns="http://www.w3.org/2000/svg" version="1.1" xmlns:xlink="http://www.w3.org/1999/xlink" xmlns:svgjs="http://svgjs.dev/svgjs" viewBox="0 0 800 800" opacity="1"><defs><linearGradient x1="50%" y1="0%" x2="50%" y2="100%" id="nnneon-grad"><stop stop-color="rgb(55, 18, 239)" stop-opacity="1" offset="0%" data-darkreader-inline-stopcolor="" style="--darkreader-inline-stopcolor: #2a0dbe;"></stop><stop stop-color="rgb(0, 255, 198)" stop-opacity="1" offset="100%" data-darkreader-inline-stopcolor="" style="--darkreader-inline-stopcolor: #00ccaa;"></stop></linearGradient><filter id="nnneon-filter" x="-100%" y="-100%" width="400%" height="400%" filterUnits="objectBoundingBox" primitiveUnits="userSpaceOnUse" color-interpolation-filters="sRGB">
	<feGaussianBlur stdDeviation="35 35" x="0%" y="0%" width="100%" height="100%" in="SourceGraphic" edgeMode="none" result="blur"></feGaussianBlur></filter><filter id="nnneon-filter2" x="-100%" y="-100%" width="400%" height="400%" filterUnits="objectBoundingBox" primitiveUnits="userSpaceOnUse" color-interpolation-filters="sRGB">
	<feGaussianBlur stdDeviation="0 32" x="0%" y="0%" width="100%" height="100%" in="SourceGraphic" edgeMode="none" result="blur"></feGaussianBlur></filter></defs><g stroke-width="44" stroke="url(#nnneon-grad)" fill="none"><path d="M378.6765903078755 92.45840881986112C391.87153510963935 84.84167597695534 408.1285259255169 84.84167597695534 421.3234707272808 92.46054116388211L655.6766080079967 227.7641663265083C668.8715528097607 235.38089916941408 677.0000482176994 249.46076673988068 677.0000482176994 264.69636476971334V535.3036150949656C677.0000482176994 550.5392131247984 668.8715528097607 564.6190806952649 655.6766080079967 572.2379458821918L421.3234707272808 707.5415710448178C408.1285259255169 715.1583038877236 391.87153510963935 715.1583038877236 378.6765903078755 707.5394387007968L144.32345302715953 572.2358135381708C131.12850822539554 564.6190806952649 123.00001281745688 550.5392131247984 123.00001281745688 535.3036150949656V264.69636476971334C123.00001281745688 249.46076673988068 131.12850822539554 235.38089916941408 144.32345302715953 227.76203398248737L378.6765903078755 92.45840881986112Z " filter="url(#nnneon-filter)"></path><path d="M461.6765903078755 92.45840881986112C474.87153510963935 84.84167597695534 491.1285259255169 84.84167597695534 504.3234707272808 92.46054116388211L738.6766080079967 227.7641663265083C751.8715528097607 235.38089916941408 760.0000482176994 249.46076673988068 760.0000482176994 264.69636476971334V535.3036150949656C760.0000482176994 550.5392131247984 751.8715528097607 564.6190806952649 738.6766080079967 572.2379458821918L504.3234707272808 707.5415710448178C491.1285259255169 715.1583038877236 474.87153510963935 715.1583038877236 461.6765903078755 707.5394387007968L227.32345302715953 572.2358135381708C214.12850822539554 564.6190806952649 206.00001281745688 550.5392131247984 206.00001281745688 535.3036150949656V264.69636476971334C206.00001281745688 249.46076673988068 214.12850822539554 235.38089916941408 227.32345302715953 227.76203398248737L461.6765903078755 92.45840881986112Z " filter="url(#nnneon-filter2)" opacity="0.73"></path><path d="M295.6765903078755 92.45840881986112C308.87153510963935 84.84167597695534 325.1285259255169 84.84167597695534 338.3234707272808 92.46054116388211L572.6766080079967 227.7641663265083C585.8715528097607 235.38089916941408 594.0000482176994 249.46076673988068 594.0000482176994 264.69636476971334V535.3036150949656C594.0000482176994 550.5392131247984 585.8715528097607 564.6190806952649 572.6766080079967 572.2379458821918L338.3234707272808 707.5415710448178C325.1285259255169 715.1583038877236 308.87153510963935 715.1583038877236 295.6765903078755 707.5394387007968L61.32345302715953 572.2358135381708C48.128508225395535 564.6190806952649 40.00001281745688 550.5392131247984 40.00001281745688 535.3036150949656V264.69636476971334C40.00001281745688 249.46076673988068 48.128508225395535 235.38089916941408 61.32345302715953 227.76203398248737L295.6765903078755 92.45840881986112Z " filter="url(#nnneon-filter2)" opacity="0.73"></path><path d="M378.6765903078755 92.45840881986112C391.87153510963935 84.84167597695534 408.1285259255169 84.84167597695534 421.3234707272808 92.46054116388211L655.6766080079967 227.7641663265083C668.8715528097607 235.38089916941408 677.0000482176994 249.46076673988068 677.0000482176994 264.69636476971334V535.3036150949656C677.0000482176994 550.5392131247984 668.8715528097607 564.6190806952649 655.6766080079967 572.2379458821918L421.3234707272808 707.5415710448178C408.1285259255169 715.1583038877236 391.87153510963935 715.1583038877236 378.6765903078755 707.5394387007968L144.32345302715953 572.2358135381708C131.12850822539554 564.6190806952649 123.00001281745688 550.5392131247984 123.00001281745688 535.3036150949656V264.69636476971334C123.00001281745688 249.46076673988068 131.12850822539554 235.38089916941408 144.32345302715953 227.76203398248737L378.6765903078755 92.45840881986112Z "></path></g></svg>